<?xml version="1.0" standalone="no"?>
<!DOCTYPE svg PUBLIC "-//W3C//DTD SVG 20010904//EN"
 "http://www.w3.org/TR/2001/REC-SVG-20010904/DTD/svg10.dtd">
<svg version="1.0" xmlns="http://www.w3.org/2000/svg"
 width="960.000000pt" height="960.000000pt" viewBox="0 0 960.000000 960.000000"
 preserveAspectRatio="xMidYMid meet">
<metadata>
Created by potrace 1.11, written by Peter Selinger 2001-2013
</metadata>
<g transform="translate(0.000000,960.000000) scale(0.100000,-0.100000)"
fill="#000000" stroke="none">
<path d="M6811 9450 c-4 -3 -13 -25 -20 -50 -6 -25 -14 -53 -16 -62 -3 -10 -7
-26 -10 -35 -2 -10 -30 -106 -61 -213 -31 -107 -57 -202 -58 -210 -1 -9 -5
-20 -8 -25 -3 -6 -9 -24 -12 -40 -6 -26 -13 -32 -54 -42 -26 -6 -55 -14 -64
-18 -12 -5 -28 5 -55 33 -39 40 -180 193 -215 234 -11 13 -54 61 -96 107 -42
46 -91 99 -108 117 l-30 35 -115 -59 c-217 -112 -220 -114 -215 -142 6 -35 27
-127 86 -374 11 -44 17 -83 14 -88 -3 -4 0 -8 5 -8 6 0 11 -10 11 -22 0 -13 9
-57 20 -98 l19 -75 -22 -23 c-12 -13 -35 -33 -50 -44 -26 -19 -30 -19 -67 -4
-21 8 -49 18 -62 20 -13 3 -61 19 -108 36 -91 33 -90 33 -135 45 -16 4 -34 10
-40 14 -5 3 -12 6 -15 6 -3 1 -65 21 -138 45 l-132 45 -25 -30 c-14 -17 -29
-35 -35 -42 -5 -7 -10 -14 -10 -17 0 -3 -17 -31 -38 -63 -88 -132 -103 -164
-90 -181 7 -9 63 -68 125 -132 327 -338 353 -366 353 -386 0 -11 -3 -24 -7
-28 -4 -3 -8 -12 -9 -19 -1 -7 -5 -23 -7 -37 -3 -14 -6 -29 -6 -33 -1 -5 -5
-6 -9 -3 -4 2 -44 -4 -89 -14 -45 -11 -96 -22 -115 -25 -18 -3 -40 -8 -49 -11
-9 -2 -33 -7 -54 -9 -20 -3 -41 -7 -45 -10 -4 -3 -25 -7 -46 -10 -22 -3 -46
-8 -54 -11 -8 -3 -26 -8 -40 -10 -74 -14 -176 -36 -182 -40 -19 -12 -32 -369
-13 -383 10 -8 105 -36 115 -34 3 1 12 -3 21 -8 9 -4 27 -10 40 -13 32 -6 483
-137 487 -141 2 -1 5 -15 8 -31 3 -16 10 -44 17 -62 13 -36 24 -22 -123 -152
-41 -36 -88 -77 -105 -92 -16 -15 -39 -36 -51 -45 -25 -21 -152 -134 -205
-181 l-36 -34 46 -91 c26 -51 66 -126 89 -168 l42 -77 103 25 c56 13 111 26
122 29 11 2 47 10 80 18 33 9 71 18 85 20 14 3 54 13 90 21 36 8 98 23 139 32
l74 17 38 -43 c44 -48 43 -44 28 -91 -5 -19 -12 -42 -14 -50 -6 -22 -39 -130
-75 -245 -30 -98 -36 -118 -44 -152 -2 -10 -17 -59 -34 -110 l-30 -92 22 -19
c33 -29 116 -86 171 -118 28 -15 52 -31 55 -34 3 -3 21 -13 41 -23 l36 -19
163 159 c89 87 202 197 252 246 49 48 96 87 104 87 9 0 24 -5 35 -11 11 -5 32
-12 47 -14 15 -1 30 -3 34 -4 4 0 11 -25 17 -53 6 -29 13 -64 16 -78 2 -14 11
-54 19 -90 8 -36 17 -82 20 -104 4 -21 8 -42 11 -46 2 -3 6 -20 9 -36 3 -16
17 -83 31 -149 14 -65 25 -122 25 -126 0 -13 118 -24 250 -24 l134 1 16 44 c9
25 17 48 17 53 6 35 17 74 25 84 6 7 8 13 5 13 -3 0 -1 15 4 33 6 17 12 40 14
49 2 9 9 26 15 37 6 12 8 21 6 21 -3 0 -1 11 4 25 5 14 12 36 14 48 9 45 74
258 80 265 4 3 17 7 29 8 12 0 38 7 58 14 42 15 34 21 134 -96 28 -32 57 -65
65 -74 8 -9 44 -50 80 -91 35 -41 67 -76 70 -79 3 -3 20 -23 39 -45 18 -22 53
-61 77 -87 l44 -46 102 53 c138 71 239 130 233 137 -3 3 -17 54 -31 114 -14
60 -29 125 -34 144 -25 98 -83 357 -80 362 1 2 -3 15 -9 30 -9 25 -7 31 25 60
57 52 56 52 171 12 59 -20 114 -38 122 -39 9 -2 18 -4 21 -5 3 -1 8 -2 13 -1
4 0 7 -4 7 -11 0 -6 3 -9 6 -5 3 3 51 -11 107 -30 56 -20 108 -36 115 -36 6 0
12 -3 12 -7 0 -4 6 -7 13 -7 6 0 43 -10 81 -23 l69 -23 19 24 c40 51 128 186
128 197 0 7 5 12 11 12 5 0 7 5 4 10 -3 6 -2 10 3 10 5 0 15 12 23 28 7 15 15
30 17 34 2 4 -39 50 -90 104 -175 181 -240 249 -321 331 l-81 82 13 53 c20 83
21 85 34 85 15 1 76 12 97 18 18 5 66 15 95 19 11 2 29 6 40 9 11 3 31 8 45
11 14 2 69 14 124 25 54 12 110 24 125 27 14 3 40 7 56 10 67 11 95 25 96 47
0 12 3 31 5 42 6 26 11 296 6 312 -2 7 -8 11 -12 8 -5 -3 -11 -1 -15 5 -4 6
-11 8 -16 5 -5 -4 -9 -1 -9 5 0 6 -4 9 -9 6 -4 -3 -21 -1 -37 4 -31 11 -268
79 -294 85 -8 2 -55 15 -105 30 -49 15 -97 28 -105 30 -8 2 -15 4 -15 5 0 1
-11 4 -24 6 -31 6 -29 3 -36 41 -3 18 -10 44 -15 58 -11 28 -14 62 -4 53 3 -3
25 13 49 36 24 23 62 57 83 75 22 18 53 44 69 59 30 28 159 143 197 175 12 10
44 38 73 64 l51 45 -19 34 c-10 19 -17 34 -14 34 2 0 -29 60 -70 133 -40 72
-77 131 -82 130 -4 0 -21 -3 -38 -6 -27 -4 -208 -46 -275 -64 -42 -11 -54 -13
-80 -17 -14 -2 -26 -5 -27 -6 -2 -1 -6 -3 -10 -4 -5 -1 -26 -6 -48 -11 -22 -5
-42 -9 -45 -10 -3 -1 -18 -4 -35 -8 -16 -4 -41 -10 -55 -13 -71 -17 -102 -4
-135 58 -14 25 -12 35 25 145 23 65 42 125 44 133 2 8 34 103 70 211 36 108
64 203 61 210 -6 14 -80 69 -91 68 -4 0 -10 3 -13 8 -3 6 -42 31 -86 58 -44
26 -89 54 -100 61 -23 15 -9 25 -175 -127 -47 -43 -95 -86 -106 -96 -22 -18
-194 -175 -224 -203 -43 -41 -45 -41 -106 -25 -66 17 -76 24 -79 59 -2 13 -7
39 -11 58 -4 18 -7 37 -6 42 2 4 -2 14 -8 20 -5 7 -8 15 -5 18 3 2 -11 85 -30
182 -19 98 -34 181 -33 184 1 4 -2 18 -5 32 -8 31 -18 81 -19 98 -1 6 -6 13
-12 13 -6 1 -22 3 -36 6 -41 6 -330 9 -339 3z m299 -955 c19 -3 64 -13 100
-22 36 -8 70 -16 75 -17 6 -1 15 -4 20 -7 6 -4 23 -9 40 -13 92 -23 336 -162
432 -248 66 -60 172 -172 198 -210 137 -203 186 -305 244 -513 38 -134 46
-418 16 -555 -14 -69 -19 -96 -17 -102 1 -5 -3 -8 -9 -8 -5 0 -8 -4 -5 -9 8
-12 -45 -156 -90 -245 -118 -236 -338 -460 -579 -588 -102 -54 -294 -119 -398
-134 -17 -2 -52 -7 -77 -11 -89 -13 -315 -6 -405 13 -51 10 -60 12 -60 14 0 1
-11 3 -25 6 -84 14 -367 138 -400 175 -3 3 -25 19 -50 37 -99 68 -204 171
-291 287 -120 158 -214 366 -244 540 -3 17 -8 37 -10 45 -24 87 -24 366 0 477
16 76 49 190 56 198 5 5 9 16 9 25 0 31 121 253 182 335 81 107 212 229 328
306 41 27 80 54 87 59 7 6 19 10 27 10 8 0 16 3 18 8 3 7 90 52 100 52 3 0 23
8 44 17 22 9 42 18 47 19 4 1 9 2 12 3 3 0 6 1 8 0 1 0 16 5 32 11 29 11 41
14 95 25 42 8 143 24 175 28 44 5 274 -1 315 -8z"/>
<path d="M3331 6310 l-54 -5 -23 -65 c-21 -63 -84 -265 -88 -285 -1 -5 -4 -14
-7 -20 -4 -5 -10 -23 -14 -40 -12 -45 -12 -45 -15 -47 -1 -2 -3 -10 -5 -18 -1
-8 -22 -76 -45 -150 -23 -74 -50 -161 -59 -193 -18 -64 -27 -72 -83 -81 -21
-3 -53 -8 -72 -11 -26 -5 -37 -2 -48 13 -7 10 -41 50 -75 88 -34 38 -70 79
-81 92 -11 12 -48 54 -82 92 -34 38 -70 78 -79 88 -88 102 -138 158 -151 172
-8 8 -42 46 -74 83 -48 55 -64 67 -80 62 -12 -4 -27 -7 -33 -7 -7 -1 -13 -5
-13 -10 0 -4 -5 -8 -11 -8 -18 0 -180 -85 -282 -147 l-94 -58 13 -50 c7 -28
12 -52 12 -55 0 -3 1 -7 2 -10 2 -6 4 -12 36 -145 15 -60 27 -118 28 -127 0
-10 4 -18 9 -18 5 0 7 -6 4 -14 -3 -8 -3 -17 1 -20 3 -4 7 -13 8 -21 1 -8 16
-72 34 -142 18 -70 33 -134 35 -143 2 -8 8 -35 15 -60 7 -25 14 -56 17 -69 2
-14 6 -28 9 -32 2 -5 -12 -23 -32 -41 -20 -18 -47 -43 -61 -55 -30 -29 -37
-29 -142 4 -47 15 -88 27 -91 28 -41 10 -99 28 -115 34 -11 5 -42 15 -70 22
-27 6 -54 16 -59 20 -6 5 -17 9 -25 9 -17 0 -144 37 -176 51 -11 5 -31 11 -45
13 -14 2 -38 9 -55 16 -16 6 -39 14 -50 16 -26 7 -36 10 -58 17 -38 15 -44 14
-63 -9 -10 -14 -24 -30 -29 -37 -27 -32 -125 -186 -125 -195 0 -6 -4 -12 -8
-14 -5 -1 -28 -38 -51 -80 -47 -88 -47 -92 19 -151 22 -21 38 -37 36 -37 -2 0
33 -38 78 -84 44 -46 134 -140 198 -207 64 -68 155 -164 202 -213 56 -58 83
-93 77 -100 -5 -6 -9 -13 -8 -16 1 -3 -7 -33 -18 -67 -18 -57 -22 -62 -55 -69
-19 -4 -39 -8 -45 -10 -5 -1 -26 -5 -45 -8 -19 -4 -42 -9 -50 -11 -8 -2 -27
-7 -43 -10 -15 -3 -38 -7 -52 -10 -14 -3 -35 -7 -47 -9 -13 -2 -43 -9 -68 -15
-25 -5 -60 -13 -79 -16 -19 -3 -37 -7 -40 -9 -3 -2 -24 -7 -46 -11 -22 -3 -49
-8 -60 -10 -11 -3 -31 -7 -45 -9 -14 -3 -36 -7 -50 -10 -14 -3 -71 -16 -127
-28 -98 -20 -103 -23 -104 -47 0 -14 -2 -37 -4 -51 -16 -125 -21 -301 -11
-370 2 -14 4 -33 5 -42 0 -10 4 -17 9 -17 4 1 9 0 12 -1 3 -1 12 -3 20 -5 14
-3 113 -32 305 -91 44 -14 87 -27 95 -29 49 -13 149 -44 170 -53 14 -5 28 -10
33 -11 4 0 8 -1 10 -2 1 0 9 -2 18 -4 17 -3 222 -67 227 -71 2 -1 10 -37 17
-80 l14 -79 -27 -24 c-72 -64 -168 -149 -198 -176 -18 -16 -54 -49 -81 -72
-26 -23 -64 -56 -83 -73 -19 -18 -87 -78 -150 -133 -63 -56 -126 -113 -141
-127 l-27 -25 59 -120 c80 -166 172 -325 188 -325 4 0 32 7 63 15 31 8 69 17
85 20 38 8 58 13 58 15 0 2 14 5 55 13 14 3 54 13 90 22 36 9 72 18 80 20 8 2
60 15 115 29 55 13 111 27 125 30 14 3 40 10 59 15 19 6 37 9 39 6 3 -3 11 0
19 6 7 6 13 9 13 6 0 -3 15 0 33 6 59 23 79 16 135 -46 48 -52 53 -62 46 -90
-3 -18 -10 -36 -14 -42 -4 -5 -11 -26 -16 -45 -10 -42 -9 -41 -17 -60 -16 -41
-150 -467 -150 -477 0 -7 -5 -13 -10 -13 -6 0 -8 -2 -5 -5 3 -4 -11 -56 -32
-116 l-37 -111 49 -39 c28 -21 53 -39 57 -39 4 0 16 -8 27 -17 28 -25 82 -63
90 -63 3 0 18 -8 32 -19 15 -10 61 -37 104 -60 l76 -41 54 53 c30 28 126 120
213 202 187 178 236 225 342 327 l80 77 39 -10 c21 -6 46 -13 54 -16 8 -3 24
-8 35 -10 11 -2 23 -7 27 -11 8 -8 45 -166 54 -227 3 -16 9 -51 15 -76 6 -26
12 -55 14 -65 2 -11 4 -20 5 -21 2 -2 3 -11 4 -20 1 -10 8 -43 14 -73 19 -85
22 -103 27 -132 2 -15 6 -31 8 -35 3 -5 8 -29 12 -53 4 -25 13 -74 22 -110 8
-36 17 -76 20 -90 6 -31 8 -34 41 -36 15 -1 27 -2 27 -3 0 -6 178 -15 293 -15
152 0 142 -5 168 94 10 36 20 67 23 70 3 3 8 14 9 25 2 11 12 47 23 80 11 33
21 69 24 80 2 11 25 88 51 170 25 83 47 155 48 160 6 30 69 221 75 227 3 4 24
10 46 13 78 12 99 16 103 20 2 2 22 -17 44 -42 22 -25 45 -51 51 -58 7 -7 39
-43 72 -80 33 -38 65 -73 70 -79 6 -6 39 -45 75 -86 36 -41 74 -84 85 -96 11
-11 42 -46 69 -78 27 -31 62 -71 79 -89 16 -17 42 -47 57 -65 l27 -33 52 21
c29 11 69 29 89 39 20 10 40 18 43 17 4 0 15 6 25 15 11 9 26 19 35 22 23 8
197 116 203 125 3 5 0 26 -5 48 -6 21 -12 50 -15 64 -2 14 -24 106 -50 205
-25 99 -48 191 -51 205 -2 14 -7 32 -10 40 -3 8 -7 22 -8 30 -3 18 -9 45 -30
130 -9 36 -18 73 -21 83 -2 9 -7 27 -10 40 -18 69 -19 66 45 127 l61 58 48
-15 c26 -8 61 -19 77 -23 17 -5 77 -24 135 -44 58 -20 116 -39 130 -42 13 -3
76 -23 140 -45 63 -22 115 -39 115 -39 0 2 183 -56 215 -67 43 -17 53 -9 121
94 22 32 43 63 48 69 4 5 14 21 21 35 7 13 16 26 19 29 15 13 101 176 101 191
0 8 -51 66 -113 130 -61 64 -178 186 -259 270 -296 311 -294 309 -266 309 6 0
8 3 5 6 -3 4 -1 16 6 28 7 11 19 41 27 66 l15 45 100 22 c55 12 117 24 138 27
21 3 41 7 45 10 4 2 23 7 42 10 19 3 46 8 60 11 14 3 48 10 75 15 57 11 63 13
160 34 87 18 117 24 153 31 15 3 38 8 52 12 14 4 32 7 41 8 39 5 66 15 66 27
1 7 4 38 7 68 18 153 26 360 16 360 -3 0 -7 12 -8 27 -1 14 -4 28 -6 30 -2 2
-48 17 -102 33 -55 16 -162 47 -239 70 -77 23 -167 50 -200 60 -33 10 -75 23
-93 28 -18 6 -36 12 -40 13 -4 1 -11 3 -17 5 -77 23 -193 57 -205 59 -10 1
-20 28 -30 84 l-16 82 70 62 c38 34 82 73 97 87 15 14 42 38 60 54 19 16 52
45 74 65 22 20 71 63 109 96 38 33 78 69 90 80 13 11 53 47 90 80 38 33 79 70
92 82 l24 22 -21 48 c-59 132 -88 187 -168 321 -41 68 -51 78 -76 72 -5 -1
-21 -4 -35 -7 -14 -2 -70 -16 -125 -29 -55 -14 -108 -28 -117 -30 -10 -2 -28
-6 -40 -10 -13 -3 -34 -7 -47 -10 -14 -3 -28 -7 -31 -9 -4 -2 -20 -6 -36 -9
-16 -3 -71 -16 -121 -30 -51 -13 -93 -22 -93 -19 0 3 -7 0 -15 -7 -8 -7 -15
-10 -15 -7 0 3 -42 -6 -92 -19 -51 -13 -101 -24 -110 -24 -10 0 -37 21 -60 46
-72 78 -70 72 -42 155 13 41 27 81 31 89 3 8 6 18 5 21 -1 4 14 50 33 103 18
53 31 96 28 96 -3 0 -1 6 5 13 6 6 10 15 11 20 0 9 45 153 107 341 26 76 42
141 37 145 -49 34 -110 77 -118 83 -18 14 -81 55 -131 84 -27 15 -51 31 -54
34 -3 3 -33 19 -67 36 l-61 32 -19 -22 c-11 -11 -88 -86 -172 -166 -210 -200
-280 -267 -394 -377 -89 -86 -101 -94 -125 -87 -15 4 -29 8 -32 9 -3 0 -28 7
-56 15 l-51 13 -13 71 c-8 39 -15 76 -16 81 -8 34 -15 69 -19 93 -3 15 -12 56
-20 92 -8 36 -16 79 -19 95 -3 17 -8 41 -11 55 -3 14 -8 36 -11 50 -2 14 -8
39 -11 55 -4 17 -8 35 -8 40 -1 6 -6 33 -13 60 -12 50 -19 84 -28 140 -15 86
-24 105 -52 106 -15 1 -36 3 -47 4 -122 17 -272 23 -364 15z m254 -1265 c28
-3 65 -8 84 -10 82 -10 228 -45 299 -72 9 -3 19 -7 22 -8 28 -7 97 -33 148
-56 34 -16 65 -29 67 -29 2 0 42 -22 89 -50 47 -27 89 -50 95 -50 5 0 11 -4
13 -8 2 -4 34 -30 73 -58 83 -58 111 -83 218 -191 96 -97 103 -105 141 -157
16 -22 33 -45 38 -51 21 -23 117 -179 129 -208 7 -18 15 -34 19 -37 5 -5 42
-87 60 -135 29 -75 51 -141 69 -210 27 -103 30 -117 46 -245 10 -71 10 -305 1
-398 -16 -172 -78 -393 -157 -559 -21 -45 -39 -87 -39 -92 0 -5 -4 -11 -8 -13
-4 -1 -24 -32 -44 -68 -20 -36 -44 -74 -52 -85 -9 -11 -37 -49 -63 -85 -27
-35 -59 -76 -73 -91 -14 -14 -37 -39 -51 -55 -36 -40 -146 -144 -153 -144 -3
0 -16 -10 -30 -22 -49 -46 -170 -129 -246 -169 -25 -13 -46 -27 -48 -31 -2 -5
-8 -8 -13 -8 -6 0 -40 -14 -77 -31 -120 -55 -263 -104 -369 -125 -58 -11 -81
-15 -118 -19 -22 -3 -56 -7 -75 -9 -85 -11 -354 -4 -420 10 -14 3 -36 7 -50 9
-27 4 -88 16 -105 21 -5 2 -23 6 -39 9 -39 8 -235 75 -261 88 -11 6 -22 12
-25 12 -45 8 -363 198 -390 233 -3 4 -34 32 -70 62 -36 30 -90 82 -120 114
-30 32 -62 66 -70 75 -8 9 -26 32 -40 51 -13 19 -27 37 -30 40 -14 11 -93 137
-135 215 -80 147 -172 416 -190 549 -2 17 -7 58 -11 91 -15 114 -8 390 11 498
29 153 83 331 140 455 19 39 31 72 28 72 -3 0 1 8 9 18 8 9 32 46 52 82 94
167 276 381 406 479 19 14 40 31 45 37 16 17 136 98 165 111 8 3 17 10 20 13
9 12 237 120 253 120 9 0 18 4 21 9 4 6 87 34 141 47 6 1 37 9 70 18 71 19
107 27 155 31 19 2 35 4 35 5 0 1 27 4 60 7 33 2 61 5 62 7 4 4 242 -3 288 -9z"/>
</g>
</svg>
