<?xml version="1.0" encoding="utf-8"?>
<!-- Generator: Adobe Illustrator 22.0.1, SVG Export Plug-In . SVG Version: 6.00 Build 0)  -->
<svg version="1.1" id="Layer_1" xmlns="http://www.w3.org/2000/svg" xmlns:xlink="http://www.w3.org/1999/xlink" x="0px" y="0px"
	 viewBox="0 0 283.5 79.1" style="enable-background:new 0 0 283.5 79.1;" xml:space="preserve">
<style type="text/css">
	.st0{fill:#C9D92D;}
</style>
<g>
	<g>
		<g>
			<g>
				<g>
					<g>
						<path class="st0" d="M233.9,45.4l5.8-1.2c0-0.3,0.1-0.6,0.1-0.9c0.1-0.7,0.1-1.5,0-2.2l-5.6-1.7c-0.1-0.3-0.1-0.7-0.2-1
							l4.4-3.9c-0.4-1-0.9-1.9-1.5-2.8l-5.7,1.4c-0.2-0.3-0.5-0.5-0.7-0.8l1.8-5.6c-0.8-0.6-1.7-1.2-2.7-1.7l-4.3,4.1
							c-0.3-0.1-0.7-0.2-1-0.3l-1.2-5.8c-0.3,0-0.6-0.1-0.9-0.1c-0.8-0.1-1.5-0.1-2.2,0l-1.7,5.6c-0.3,0.1-0.7,0.1-1,0.2l-3.9-4.4
							c-1,0.4-1.9,0.9-2.8,1.5l1.4,5.7c-0.3,0.2-0.5,0.5-0.8,0.7l-5.6-1.8c-0.6,0.8-1.2,1.7-1.7,2.7l4.1,4.3c-0.1,0.3-0.2,0.7-0.3,1
							l-5.8,1.2c0,0.3-0.1,0.6-0.1,0.9c-0.1,0.8-0.1,1.5,0,2.2l5.6,1.7c0.1,0.3,0.1,0.7,0.2,1l-4.4,3.9c0.4,1,0.9,1.9,1.5,2.8
							l5.7-1.4c0.2,0.3,0.5,0.5,0.7,0.8l-1.8,5.6c0.8,0.6,1.7,1.2,2.7,1.7l4.3-4.1c0.3,0.1,0.7,0.2,1,0.3l1.2,5.8
							c0.3,0,0.6,0.1,0.9,0.1c0.8,0.1,1.5,0.1,2.2,0l1.7-5.6c0.3-0.1,0.7-0.1,1-0.2l3.9,4.4c1-0.4,1.9-0.9,2.8-1.5l-1.4-5.7
							c0.3-0.2,0.5-0.5,0.8-0.7l5.6,1.8c0.6-0.8,1.2-1.7,1.7-2.7l-4.1-4.3C233.7,46.1,233.8,45.7,233.9,45.4z M219.9,53
							c-6.2-0.5-10.8-5.8-10.3-12c0.5-6.2,5.8-10.8,12-10.3c6.2,0.5,10.8,5.8,10.3,12C231.4,48.8,226,53.4,219.9,53z"/>
					</g>
				</g>
			</g>
		</g>
	</g>
</g>
<g>
	<path d="M15.1,45.4h1.8v0.1c0,0.8,0.3,1.3,0.8,1.6c0.5,0.3,1.2,0.4,2.1,0.4c0.8,0,1.4-0.2,1.9-0.7c0.5-0.5,0.8-1,0.8-1.8
		c0-0.6-0.2-1.1-0.7-1.5c-0.5-0.4-1.1-0.7-2-1.1l-0.7-0.3c-1-0.4-1.7-0.8-2.2-1.2c-0.5-0.4-0.8-0.8-1.1-1.3s-0.4-1-0.4-1.6
		c0-1,0.4-1.9,1.1-2.6s1.9-1.1,3.4-1.1c1.4,0,2.4,0.3,3,0.8c0.6,0.5,0.9,1.1,0.9,1.9v0.1h-1.8v-0.1c0-0.2-0.1-0.4-0.3-0.7
		c-0.2-0.2-0.4-0.4-0.8-0.5c-0.4-0.1-0.7-0.1-1.2-0.1c-0.9,0-1.5,0.2-1.9,0.7s-0.6,0.9-0.6,1.5c0,0.4,0.1,0.7,0.3,1.1
		c0.2,0.3,0.5,0.6,0.8,0.8c0.3,0.2,0.9,0.5,1.8,0.9L21,41c1.3,0.6,2.2,1.2,2.7,1.8c0.4,0.6,0.7,1.3,0.7,2.1c0,0.7-0.2,1.4-0.5,2
		c-0.4,0.6-0.9,1.1-1.5,1.5s-1.5,0.5-2.6,0.5c-1,0-1.9-0.1-2.6-0.4c-0.7-0.2-1.2-0.6-1.6-1.2C15.3,46.8,15.1,46.2,15.1,45.4
		L15.1,45.4z"/>
	<path d="M28,48.5h-1.6v-9.8H28v1.8c0.3-0.6,0.7-1,1-1.3c0.3-0.3,0.6-0.5,1-0.6c0.4-0.1,0.7-0.2,1.1-0.2c0.4,0,0.8,0.1,1.2,0.2
		c0.4,0.1,0.7,0.3,1,0.6c0.3,0.2,0.5,0.7,0.8,1.3c0.3-0.6,0.7-1,1-1.3c0.3-0.3,0.7-0.5,1-0.6c0.3-0.1,0.7-0.2,1.1-0.2
		c0.6,0,1.1,0.1,1.5,0.4c0.5,0.3,0.8,0.6,1,1.1c0.2,0.5,0.4,1.3,0.4,2.5v6.1h-1.6V43c0-1.2-0.1-1.9-0.2-2.2
		c-0.1-0.3-0.3-0.5-0.6-0.7c-0.2-0.2-0.5-0.2-0.9-0.2c-0.5,0-0.9,0.2-1.3,0.5c-0.4,0.3-0.7,0.7-1,1.2c-0.2,0.5-0.4,1.2-0.4,2.1v4.8
		h-1.6V43c0-1.2-0.1-1.9-0.2-2.2c-0.1-0.3-0.3-0.5-0.6-0.7s-0.6-0.2-0.9-0.2c-0.5,0-0.9,0.2-1.3,0.5c-0.4,0.3-0.8,0.7-1,1.2
		c-0.2,0.5-0.4,1.2-0.4,2.1V48.5z"/>
	<path d="M48.5,48.5c-0.2-0.5-0.3-1-0.3-1.4c-0.7,0.7-1.3,1.2-1.8,1.3c-0.5,0.2-1,0.3-1.5,0.3c-0.8,0-1.4-0.2-2-0.7
		c-0.6-0.5-0.8-1.1-0.8-2c0-1,0.4-1.7,1.2-2.2c0.8-0.5,2.1-1,4.1-1.3l0.9-0.2v-1.1c0-0.6-0.2-1-0.6-1.3c-0.4-0.2-0.9-0.4-1.5-0.4
		c-0.7,0-1.2,0.1-1.6,0.4c-0.4,0.3-0.6,0.6-0.6,1.1v0.1h-1.8v-0.1c0-0.4,0.2-0.9,0.6-1.3c0.4-0.5,0.9-0.8,1.5-1
		c0.6-0.2,1.3-0.4,2-0.4s1.4,0.1,1.9,0.3c0.6,0.2,1,0.5,1.3,0.9c0.3,0.4,0.4,1.1,0.4,2.1v3.8c0,0.4,0,0.9,0,1.3s0.1,1,0.3,1.6H48.5z
		 M48.2,43.5l-0.5,0.1c-1.7,0.4-2.7,0.8-3.2,1.2c-0.5,0.4-0.7,0.8-0.7,1.3c0,0.3,0.1,0.5,0.2,0.7c0.1,0.2,0.3,0.4,0.6,0.5
		c0.3,0.1,0.5,0.2,0.8,0.2c0.5,0,0.9-0.1,1.4-0.4s0.8-0.6,1-1.1c0.2-0.4,0.4-1,0.4-1.6V43.5z"/>
	<path d="M54,48.5h-1.6v-9.8H54v1.7c0.3-0.5,0.6-0.9,0.9-1.2c0.3-0.3,0.7-0.5,1-0.6s0.7-0.2,1.1-0.2c0.3,0,0.6,0,0.9,0.1v1.7
		c-0.4-0.2-0.8-0.3-1.2-0.3c-0.6,0-1.2,0.3-1.8,0.8c-0.6,0.5-0.9,1.5-0.9,2.9V48.5z"/>
	<path d="M65.4,47.1v1.4c-0.8,0.2-1.4,0.3-1.8,0.3c-0.6,0-1.2-0.1-1.7-0.4c-0.5-0.2-0.9-0.6-1.1-1.1c-0.3-0.5-0.4-1.2-0.4-2.2v-5
		h-1.7v-1.4h1.7v-2.3H62v2.3h2.9V40H62v4.6c0,0.9,0.1,1.5,0.2,1.8c0.1,0.3,0.3,0.6,0.6,0.7c0.3,0.2,0.6,0.2,1,0.2
		C64.2,47.4,64.7,47.3,65.4,47.1z"/>
	<path d="M66.6,49.8v-1.4h10.9v1.4H66.6z"/>
	<path d="M87.5,45.5h1.6v0.1c0,0.5-0.2,1.1-0.6,1.7c-0.4,0.6-0.9,1-1.5,1.2c-0.6,0.3-1.4,0.4-2.2,0.4c-1.7,0-3.2-0.6-4.3-1.8
		c-1.1-1.2-1.7-3-1.7-5.4c0-2.4,0.5-4.2,1.6-5.4c1.1-1.2,2.5-1.8,4.3-1.8c0.8,0,1.6,0.1,2.2,0.4c0.6,0.3,1.1,0.7,1.5,1.2
		c0.4,0.6,0.6,1.1,0.6,1.6v0.1h-1.6v-0.1c0-0.3-0.1-0.6-0.3-1c-0.2-0.3-0.5-0.5-0.9-0.7c-0.4-0.2-0.9-0.2-1.4-0.2
		c-1.4,0-2.4,0.6-3.1,1.7c-0.7,1.1-1,2.5-1,4.2c0,1.7,0.3,3.1,1,4.2c0.7,1.1,1.7,1.6,3.1,1.6c1,0,1.6-0.2,2-0.6S87.5,46.1,87.5,45.5
		L87.5,45.5z"/>
	<path d="M95.2,48.7c-1.3,0-2.4-0.4-3.3-1.3s-1.4-2.2-1.4-3.9c0-1.7,0.5-3,1.4-3.9c0.9-0.9,2-1.3,3.3-1.3s2.4,0.4,3.3,1.3
		c0.9,0.9,1.4,2.2,1.4,3.9c0,1.7-0.5,3-1.4,3.9S96.5,48.7,95.2,48.7z M95.2,47.4c0.9,0,1.6-0.4,2.1-1.1c0.5-0.7,0.8-1.6,0.8-2.8
		c0-1.1-0.3-2.1-0.8-2.8c-0.5-0.7-1.2-1.1-2.1-1.1s-1.6,0.4-2.1,1.1c-0.5,0.7-0.8,1.6-0.8,2.8c0,1.1,0.3,2.1,0.8,2.8
		C93.6,47,94.3,47.4,95.2,47.4z"/>
	<path d="M103.6,48.5H102v-9.8h1.6v1.7c0.3-0.5,0.7-0.9,1-1.2c0.3-0.3,0.7-0.5,1-0.6s0.7-0.2,1.2-0.2c0.6,0,1.2,0.1,1.7,0.4
		c0.5,0.2,0.9,0.6,1.1,1.1c0.3,0.5,0.4,1.3,0.4,2.4v6.2h-1.6v-5.6c0-0.9-0.1-1.5-0.2-1.9c-0.1-0.4-0.3-0.7-0.7-0.9
		c-0.3-0.2-0.7-0.3-1.1-0.3c-0.5,0-0.9,0.1-1.4,0.4s-0.8,0.7-1,1.2c-0.3,0.5-0.4,1.2-0.4,2.2V48.5z"/>
	<path d="M118.5,47.1v1.4c-0.8,0.2-1.4,0.3-1.8,0.3c-0.6,0-1.2-0.1-1.7-0.4c-0.5-0.2-0.9-0.6-1.1-1.1c-0.3-0.5-0.4-1.2-0.4-2.2v-5
		h-1.7v-1.4h1.7v-2.3h1.6v2.3h2.9V40h-2.9v4.6c0,0.9,0.1,1.5,0.2,1.8c0.1,0.3,0.3,0.6,0.6,0.7c0.3,0.2,0.6,0.2,1,0.2
		C117.3,47.4,117.8,47.3,118.5,47.1z"/>
	<path d="M122.1,48.5h-1.6v-9.8h1.6v1.7c0.3-0.5,0.6-0.9,0.9-1.2s0.7-0.5,1-0.6c0.4-0.1,0.7-0.2,1.1-0.2c0.3,0,0.6,0,0.9,0.1v1.7
		c-0.4-0.2-0.8-0.3-1.2-0.3c-0.6,0-1.2,0.3-1.8,0.8c-0.6,0.5-0.9,1.5-0.9,2.9V48.5z"/>
	<path d="M133.5,48.5c-0.2-0.5-0.3-1-0.3-1.4c-0.7,0.7-1.3,1.2-1.8,1.3s-1,0.3-1.5,0.3c-0.8,0-1.4-0.2-2-0.7c-0.6-0.5-0.8-1.1-0.8-2
		c0-1,0.4-1.7,1.2-2.2c0.8-0.5,2.1-1,4.1-1.3l0.9-0.2v-1.1c0-0.6-0.2-1-0.6-1.3c-0.4-0.2-0.9-0.4-1.5-0.4c-0.7,0-1.2,0.1-1.6,0.4
		c-0.4,0.3-0.6,0.6-0.6,1.1v0.1h-1.8v-0.1c0-0.4,0.2-0.9,0.6-1.3s0.9-0.8,1.5-1c0.6-0.2,1.3-0.4,2-0.4s1.4,0.1,2,0.3
		c0.6,0.2,1,0.5,1.3,0.9c0.3,0.4,0.4,1.1,0.4,2.1v3.8c0,0.4,0,0.9,0,1.3s0.1,1,0.3,1.6H133.5z M133.2,43.5l-0.5,0.1
		c-1.7,0.4-2.7,0.8-3.2,1.2c-0.5,0.4-0.7,0.8-0.7,1.3c0,0.3,0.1,0.5,0.2,0.7c0.1,0.2,0.3,0.4,0.6,0.5c0.3,0.1,0.5,0.2,0.8,0.2
		c0.5,0,0.9-0.1,1.4-0.4c0.4-0.3,0.8-0.6,1-1.1c0.2-0.4,0.4-1,0.4-1.6V43.5z"/>
	<path d="M143.5,46h1.6v0.1c0,0.4-0.2,0.9-0.5,1.3c-0.3,0.4-0.8,0.8-1.3,1c-0.5,0.2-1.2,0.4-1.9,0.4c-1.5,0-2.6-0.5-3.3-1.4
		c-0.8-0.9-1.2-2.2-1.2-3.8c0-1.6,0.4-2.9,1.2-3.8c0.8-0.9,1.9-1.4,3.3-1.4c0.8,0,1.4,0.1,1.9,0.4c0.5,0.2,1,0.6,1.3,1
		c0.3,0.4,0.5,0.9,0.5,1.4v0.1h-1.6v-0.1c0-0.3-0.1-0.7-0.5-0.9c-0.3-0.3-0.8-0.4-1.5-0.4c-0.8,0-1.5,0.3-2.1,0.9
		c-0.6,0.6-0.8,1.6-0.8,2.9c0,1.3,0.3,2.3,0.8,2.9c0.6,0.6,1.2,0.9,2.1,0.9c0.7,0,1.2-0.1,1.5-0.4C143.3,46.7,143.5,46.4,143.5,46
		L143.5,46z"/>
	<path d="M153.2,47.1v1.4c-0.8,0.2-1.4,0.3-1.8,0.3c-0.6,0-1.2-0.1-1.7-0.4c-0.5-0.2-0.9-0.6-1.1-1.1c-0.3-0.5-0.4-1.2-0.4-2.2v-5
		h-1.7v-1.4h1.7v-2.3h1.6v2.3h2.9V40h-2.9v4.6c0,0.9,0.1,1.5,0.2,1.8c0.1,0.3,0.3,0.6,0.6,0.7c0.3,0.2,0.6,0.2,1,0.2
		C152,47.4,152.5,47.3,153.2,47.1z"/>
	<path d="M154.4,49.8v-1.4h10.9v1.4H154.4z"/>
	<path d="M167.2,48.5V34.8h7.7v1.5h-5.9V41h5.2v1.4h-5.2v6.1H167.2z"/>
	<path d="M183.2,48.5c-0.2-0.5-0.3-1-0.3-1.4c-0.7,0.7-1.3,1.2-1.8,1.3s-1,0.3-1.5,0.3c-0.8,0-1.4-0.2-2-0.7c-0.6-0.5-0.8-1.1-0.8-2
		c0-1,0.4-1.7,1.2-2.2c0.8-0.5,2.1-1,4.1-1.3l0.9-0.2v-1.1c0-0.6-0.2-1-0.6-1.3c-0.4-0.2-0.9-0.4-1.5-0.4c-0.7,0-1.2,0.1-1.6,0.4
		c-0.4,0.3-0.6,0.6-0.6,1.1v0.1h-1.8v-0.1c0-0.4,0.2-0.9,0.6-1.3s0.9-0.8,1.5-1c0.6-0.2,1.3-0.4,2-0.4s1.4,0.1,2,0.3
		c0.6,0.2,1,0.5,1.3,0.9c0.3,0.4,0.4,1.1,0.4,2.1v3.8c0,0.4,0,0.9,0,1.3s0.1,1,0.3,1.6H183.2z M182.9,43.5l-0.5,0.1
		c-1.7,0.4-2.7,0.8-3.2,1.2c-0.5,0.4-0.7,0.8-0.7,1.3c0,0.3,0.1,0.5,0.2,0.7c0.1,0.2,0.3,0.4,0.6,0.5c0.3,0.1,0.5,0.2,0.8,0.2
		c0.5,0,0.9-0.1,1.4-0.4c0.4-0.3,0.8-0.6,1-1.1c0.2-0.4,0.4-1,0.4-1.6V43.5z"/>
	<path d="M193.2,46h1.6v0.1c0,0.4-0.2,0.9-0.5,1.3c-0.3,0.4-0.8,0.8-1.3,1s-1.2,0.4-1.9,0.4c-1.5,0-2.6-0.5-3.3-1.4
		c-0.8-0.9-1.2-2.2-1.2-3.8c0-1.6,0.4-2.9,1.2-3.8c0.8-0.9,1.9-1.4,3.3-1.4c0.8,0,1.4,0.1,1.9,0.4c0.5,0.2,1,0.6,1.3,1
		c0.3,0.4,0.5,0.9,0.5,1.4v0.1h-1.6v-0.1c0-0.3-0.1-0.7-0.5-0.9c-0.3-0.3-0.8-0.4-1.5-0.4c-0.8,0-1.5,0.3-2.1,0.9
		c-0.6,0.6-0.8,1.6-0.8,2.9c0,1.3,0.3,2.3,0.8,2.9c0.6,0.6,1.2,0.9,2.1,0.9c0.7,0,1.2-0.1,1.5-0.4C193.1,46.7,193.2,46.4,193.2,46
		L193.2,46z"/>
	<path d="M202.9,47.1v1.4c-0.8,0.2-1.4,0.3-1.8,0.3c-0.6,0-1.2-0.1-1.7-0.4c-0.5-0.2-0.9-0.6-1.1-1.1c-0.3-0.5-0.4-1.2-0.4-2.2v-5
		h-1.7v-1.4h1.7v-2.3h1.6v2.3h2.9V40h-2.9v4.6c0,0.9,0.1,1.5,0.2,1.8c0.1,0.3,0.3,0.6,0.6,0.7c0.3,0.2,0.6,0.2,1,0.2
		C201.8,47.4,202.2,47.3,202.9,47.1z"/>
	<path d="M241.1,48.5h-1.6v-9.8h1.6v1.7c0.3-0.5,0.6-0.9,0.9-1.2s0.7-0.5,1-0.6c0.4-0.1,0.7-0.2,1.1-0.2c0.3,0,0.6,0,0.9,0.1v1.7
		c-0.4-0.2-0.8-0.3-1.2-0.3c-0.6,0-1.2,0.3-1.8,0.8c-0.6,0.5-0.9,1.5-0.9,2.9V48.5z"/>
	<path d="M249.6,48.1l-4.2-9.4h1.8l3.3,7.3l3.1-7.3h1.6l-4.1,9.8c-0.6,1.3-1,2.2-1.4,2.6c-0.4,0.4-0.8,0.7-1.2,0.9s-1,0.3-1.7,0.3
		h-1.2v-1.4h0.9c0.5,0,0.8-0.1,1.2-0.2c0.3-0.1,0.6-0.3,0.8-0.6c0.2-0.3,0.5-0.8,0.9-1.7L249.6,48.1z"/>
</g>
<g>
	<g>
		<g>
			<g>
				<g>
					<g>
						<path class="st0" d="M252.4,20.3l4.3-0.9c0-0.2,0.1-0.5,0.1-0.7c0-0.6,0-1.1,0-1.7l-4.2-1.2c0-0.3-0.1-0.5-0.2-0.8l3.3-2.9
							c-0.3-0.7-0.7-1.4-1.1-2.1l-4.3,1c-0.2-0.2-0.4-0.4-0.5-0.6l1.4-4.2c-0.6-0.5-1.3-0.9-2-1.3L246,7.9c-0.2-0.1-0.5-0.2-0.8-0.2
							l-0.9-4.3c-0.2,0-0.5-0.1-0.7-0.1c-0.6,0-1.1,0-1.7,0l-1.2,4.2c-0.3,0-0.5,0.1-0.8,0.2l-2.9-3.3c-0.7,0.3-1.4,0.7-2.1,1.1
							l1,4.3c-0.2,0.2-0.4,0.4-0.6,0.5l-4.2-1.4c-0.5,0.6-0.9,1.3-1.3,2l3.1,3.2c-0.1,0.2-0.2,0.5-0.2,0.8l-4.3,0.9
							c0,0.2-0.1,0.5-0.1,0.7c0,0.6,0,1.1,0,1.7l4.2,1.2c0,0.3,0.1,0.5,0.2,0.8l-3.3,2.9c0.3,0.7,0.7,1.4,1.1,2.1l4.3-1
							c0.2,0.2,0.4,0.4,0.5,0.6l-1.4,4.2c0.6,0.5,1.3,0.9,2,1.3l3.2-3.1c0.2,0.1,0.5,0.2,0.8,0.2l0.9,4.3c0.2,0,0.5,0.1,0.7,0.1
							c0.6,0,1.1,0,1.7,0l1.2-4.2c0.3,0,0.5-0.1,0.8-0.2l2.9,3.3c0.7-0.3,1.4-0.7,2.1-1.1l-1-4.3c0.2-0.2,0.4-0.4,0.6-0.5l4.2,1.4
							c0.5-0.6,0.9-1.3,1.3-2l-3.1-3.2C252.3,20.8,252.4,20.5,252.4,20.3z M241.9,26c-4.6-0.3-8.1-4.4-7.8-9c0.3-4.6,4.4-8.1,9-7.8
							c4.6,0.3,8.1,4.4,7.8,9C250.6,22.8,246.5,26.3,241.9,26z"/>
					</g>
				</g>
			</g>
		</g>
	</g>
</g>
<g>
	<path d="M17.6,71.7l-3.3-7.3h1.4l2.6,5.7l2.4-5.7H22l-3.2,7.6c-0.4,1-0.8,1.7-1.1,2c-0.3,0.3-0.6,0.6-0.9,0.7
		C16.4,75,16,75,15.5,75h-1V74h0.7c0.4,0,0.7,0,0.9-0.1s0.5-0.2,0.7-0.5c0.2-0.2,0.4-0.7,0.7-1.4L17.6,71.7z"/>
	<path d="M26.4,72.3c-1,0-1.8-0.3-2.5-1c-0.7-0.7-1.1-1.7-1.1-3c0-1.3,0.4-2.3,1.1-3c0.7-0.7,1.6-1,2.5-1s1.8,0.3,2.5,1
		c0.7,0.7,1.1,1.7,1.1,3c0,1.3-0.4,2.3-1.1,3C28.2,71.9,27.4,72.3,26.4,72.3z M26.4,71.2c0.7,0,1.2-0.3,1.7-0.8
		c0.4-0.5,0.6-1.3,0.6-2.2c0-0.9-0.2-1.6-0.6-2.1c-0.4-0.5-1-0.8-1.7-0.8s-1.2,0.3-1.7,0.8c-0.4,0.5-0.6,1.3-0.6,2.1
		c0,0.9,0.2,1.6,0.6,2.2C25.2,71,25.7,71.2,26.4,71.2z"/>
	<path d="M36.5,64.4h1.3v7.6h-1.3v-1.3c-0.3,0.4-0.5,0.7-0.8,0.9c-0.3,0.2-0.5,0.4-0.8,0.5c-0.3,0.1-0.6,0.2-0.9,0.2
		c-0.7,0-1.3-0.2-1.8-0.6s-0.7-1.2-0.7-2.4v-4.8h1.3v4.3c0,1.1,0.1,1.8,0.4,2c0.3,0.2,0.7,0.4,1.1,0.4c0.4,0,0.7-0.1,1.1-0.3
		s0.6-0.5,0.8-0.9c0.2-0.4,0.3-1,0.3-1.7V64.4z"/>
	<path d="M41.1,72.1h-1.3v-7.6h1.3v1.4c0.2-0.4,0.4-0.7,0.7-0.9c0.2-0.2,0.5-0.4,0.8-0.5s0.6-0.2,0.9-0.2c0.3,0,0.5,0,0.7,0.1v1.3
		c-0.3-0.1-0.6-0.2-1-0.2c-0.5,0-0.9,0.2-1.4,0.6c-0.5,0.4-0.7,1.2-0.7,2.2V72.1z"/>
	<path d="M51.1,72.3c-1,0-1.8-0.3-2.5-1c-0.7-0.7-1.1-1.7-1.1-3c0-1.3,0.4-2.3,1.1-3c0.7-0.7,1.6-1,2.5-1s1.8,0.3,2.5,1
		c0.7,0.7,1.1,1.7,1.1,3c0,1.3-0.4,2.3-1.1,3C53,71.9,52.1,72.3,51.1,72.3z M51.1,71.2c0.7,0,1.2-0.3,1.7-0.8
		c0.4-0.5,0.6-1.3,0.6-2.2c0-0.9-0.2-1.6-0.6-2.1c-0.4-0.5-1-0.8-1.7-0.8s-1.2,0.3-1.7,0.8c-0.4,0.5-0.6,1.3-0.6,2.1
		c0,0.9,0.2,1.6,0.6,2.2C49.9,71,50.5,71.2,51.1,71.2z"/>
	<path d="M57.8,72.1l-2.2-7.6h1.3l1.3,4.7l0.2,1.1h0.1l0.2-1.1l1.4-4.7h1.3l1.5,4.7l0.3,1.2h0.1l0.2-1.2l1.3-4.7h1.2l-2.2,7.6h-1.3
		l-1.6-5L60.8,66h-0.1l-0.2,1.1l-1.5,5H57.8z"/>
	<path d="M68.6,72.1h-1.3v-7.6h1.3v1.3c0.3-0.4,0.5-0.7,0.8-0.9c0.3-0.2,0.5-0.4,0.8-0.5c0.3-0.1,0.6-0.2,0.9-0.2
		c0.5,0,0.9,0.1,1.3,0.3c0.4,0.2,0.7,0.5,0.9,0.9s0.3,1,0.3,1.8v4.9h-1.3v-4.3c0-0.7,0-1.2-0.1-1.5c-0.1-0.3-0.3-0.5-0.5-0.7
		s-0.5-0.2-0.9-0.2c-0.4,0-0.7,0.1-1.1,0.3s-0.6,0.5-0.8,0.9c-0.2,0.4-0.3,1-0.3,1.7V72.1z"/>
	<path d="M83.4,61h1.3v11h-1.3v-1.3c-0.3,0.5-0.5,0.8-0.8,1c-0.2,0.2-0.5,0.3-0.8,0.4c-0.3,0.1-0.6,0.1-0.9,0.1
		c-0.6,0-1.1-0.2-1.6-0.5c-0.5-0.3-0.9-0.8-1.1-1.4c-0.3-0.6-0.4-1.3-0.4-2.1c0-1.2,0.3-2.1,0.8-2.9c0.6-0.8,1.3-1.2,2.3-1.2
		c0.3,0,0.6,0,0.9,0.1c0.3,0.1,0.5,0.2,0.8,0.4c0.2,0.2,0.5,0.5,0.7,1V61z M83.4,68.2c0-0.9-0.2-1.6-0.6-2.1s-0.9-0.8-1.6-0.8
		c-0.6,0-1.1,0.2-1.5,0.7c-0.4,0.5-0.6,1.2-0.6,2.2c0,1.2,0.2,1.9,0.6,2.4s0.9,0.7,1.5,0.7c0.4,0,0.8-0.1,1.1-0.4s0.6-0.6,0.8-1.1
		C83.3,69.3,83.4,68.8,83.4,68.2z"/>
	<path d="M86.6,62.7v-1.3h1.3v1.3H86.6z M86.6,64.4h1.3v7.6h-1.3V64.4z"/>
	<path d="M95.1,70.5c-0.3,0.5-0.6,0.9-1,1.2c-0.4,0.3-0.9,0.4-1.5,0.4c-0.9,0-1.7-0.4-2.2-1.1s-0.9-1.7-0.9-2.8
		c0-0.8,0.1-1.5,0.4-2.1c0.3-0.6,0.6-1.1,1.1-1.4c0.5-0.3,1-0.5,1.7-0.5c0.5,0,0.9,0.1,1.3,0.3s0.8,0.6,1.1,1.1v-1.2h1.3v6.2
		c0,1.6-0.2,2.6-0.5,3.1c-0.3,0.5-0.7,0.9-1.2,1.1s-1.1,0.4-1.8,0.4c-0.6,0-1.2-0.1-1.7-0.3c-0.5-0.2-0.9-0.4-1.1-0.8
		c-0.3-0.3-0.4-0.7-0.4-1v-0.1h1.3v0.1c0,0.3,0.2,0.6,0.5,0.8s0.8,0.3,1.4,0.3c0.5,0,0.8-0.1,1.2-0.2c0.3-0.2,0.6-0.4,0.8-0.8
		s0.3-1,0.3-1.9V70.5z M95.1,68c0-0.8-0.2-1.5-0.6-2c-0.4-0.5-0.9-0.8-1.5-0.8c-0.6,0-1.1,0.3-1.5,0.8c-0.4,0.5-0.6,1.2-0.6,2.2
		c0,0.6,0.1,1.1,0.2,1.5c0.2,0.4,0.4,0.8,0.8,1c0.4,0.2,0.7,0.3,1.1,0.3c0.6,0,1.2-0.3,1.6-0.9S95.1,68.9,95.1,68z"/>
	<path d="M98.4,62.7v-1.3h1.3v1.3H98.4z M98.4,64.4h1.3v7.6h-1.3V64.4z"/>
	<path d="M106.4,71v1.1c-0.6,0.1-1.1,0.2-1.4,0.2c-0.5,0-0.9-0.1-1.3-0.3s-0.7-0.5-0.9-0.8c-0.2-0.4-0.3-0.9-0.3-1.7v-3.9h-1.3v-1.1
		h1.3v-1.8h1.3v1.8h2.2v1.1h-2.2v3.6c0,0.7,0.1,1.1,0.2,1.4c0.1,0.3,0.3,0.5,0.5,0.6c0.2,0.1,0.5,0.2,0.8,0.2
		C105.5,71.2,105.9,71.1,106.4,71z"/>
	<path d="M112.6,72.1c-0.1-0.4-0.2-0.8-0.2-1.1c-0.6,0.5-1,0.9-1.4,1c-0.4,0.1-0.8,0.2-1.1,0.2c-0.6,0-1.1-0.2-1.6-0.6
		c-0.4-0.4-0.7-0.9-0.7-1.5c0-0.7,0.3-1.3,0.9-1.7c0.6-0.4,1.7-0.7,3.2-1l0.7-0.1v-0.9c0-0.5-0.2-0.8-0.5-1
		c-0.3-0.2-0.7-0.3-1.1-0.3c-0.5,0-0.9,0.1-1.2,0.3s-0.4,0.5-0.4,0.8v0.1h-1.4v-0.1c0-0.3,0.1-0.7,0.4-1c0.3-0.4,0.7-0.6,1.1-0.8
		s1-0.3,1.5-0.3s1.1,0.1,1.5,0.3c0.5,0.2,0.8,0.4,1,0.7c0.2,0.3,0.3,0.8,0.3,1.6v3c0,0.3,0,0.7,0,1s0.1,0.8,0.2,1.2H112.6z
		 M112.4,68.2l-0.4,0.1c-1.3,0.3-2.1,0.6-2.5,0.9c-0.4,0.3-0.5,0.6-0.5,1c0,0.2,0.1,0.4,0.2,0.6c0.1,0.2,0.3,0.3,0.5,0.4
		c0.2,0.1,0.4,0.1,0.6,0.1c0.4,0,0.7-0.1,1.1-0.3c0.3-0.2,0.6-0.5,0.8-0.8c0.2-0.3,0.3-0.8,0.3-1.2V68.2z"/>
	<path d="M116.9,72.1h-1.3V61h1.3V72.1z"/>
	<path d="M126.4,70.1h1.3v0.1c0,0.3-0.1,0.7-0.4,1c-0.3,0.3-0.6,0.6-1,0.8c-0.4,0.2-0.9,0.3-1.5,0.3c-1.1,0-2-0.4-2.6-1.1
		c-0.6-0.7-0.9-1.7-0.9-3c0-1.3,0.3-2.2,0.9-3c0.6-0.7,1.5-1.1,2.6-1.1c0.6,0,1.1,0.1,1.5,0.3c0.4,0.2,0.8,0.4,1,0.8
		c0.3,0.3,0.4,0.7,0.4,1.1v0.1h-1.3v-0.1c0-0.3-0.1-0.5-0.4-0.7c-0.3-0.2-0.7-0.3-1.2-0.3c-0.6,0-1.2,0.2-1.6,0.7s-0.6,1.2-0.6,2.3
		c0,1,0.2,1.8,0.6,2.3s1,0.7,1.6,0.7c0.5,0,0.9-0.1,1.2-0.3C126.3,70.7,126.4,70.5,126.4,70.1L126.4,70.1z"/>
	<path d="M134.2,64.4h1.3v7.6h-1.3v-1.3c-0.3,0.4-0.5,0.7-0.8,0.9c-0.3,0.2-0.5,0.4-0.8,0.5c-0.3,0.1-0.6,0.2-0.9,0.2
		c-0.7,0-1.3-0.2-1.8-0.6s-0.7-1.2-0.7-2.4v-4.8h1.3v4.3c0,1.1,0.1,1.8,0.4,2c0.3,0.2,0.7,0.4,1.1,0.4c0.4,0,0.7-0.1,1.1-0.3
		s0.6-0.5,0.8-0.9c0.2-0.4,0.3-1,0.3-1.7V64.4z"/>
	<path d="M138.7,72.1h-1.3v-7.6h1.3v1.4c0.2-0.4,0.4-0.7,0.7-0.9c0.2-0.2,0.5-0.4,0.8-0.5s0.6-0.2,0.9-0.2c0.3,0,0.5,0,0.7,0.1v1.3
		c-0.3-0.1-0.6-0.2-1-0.2c-0.5,0-0.9,0.2-1.4,0.6c-0.5,0.4-0.7,1.2-0.7,2.2V72.1z"/>
	<path d="M144.1,72.1h-1.3v-7.6h1.3v1.4c0.2-0.4,0.4-0.7,0.7-0.9c0.2-0.2,0.5-0.4,0.8-0.5s0.6-0.2,0.9-0.2c0.3,0,0.5,0,0.7,0.1v1.3
		c-0.3-0.1-0.6-0.2-1-0.2c-0.5,0-0.9,0.2-1.4,0.6c-0.5,0.4-0.7,1.2-0.7,2.2V72.1z"/>
	<path d="M153.2,70.1h1.3v0.1c0,0.3-0.1,0.7-0.4,1c-0.3,0.4-0.6,0.6-1.1,0.8c-0.4,0.2-1,0.3-1.5,0.3c-1.2,0-2.1-0.4-2.7-1.1
		s-0.9-1.7-0.9-2.9c0-1.2,0.3-2.1,1-2.9c0.7-0.8,1.5-1.2,2.6-1.2c0.6,0,1.1,0.1,1.6,0.4c0.5,0.2,0.8,0.6,1.1,1.2
		c0.3,0.5,0.4,1.3,0.4,2.2v0.4h-5.4c0,0.8,0.2,1.5,0.7,2c0.4,0.5,1.1,0.8,1.8,0.8c0.6,0,1-0.1,1.2-0.3
		C153.1,70.7,153.2,70.4,153.2,70.1L153.2,70.1z M149.2,67.5h4.1v-0.2c0-0.4-0.1-0.7-0.3-1c-0.2-0.3-0.4-0.6-0.7-0.7
		s-0.7-0.2-1.1-0.2c-0.5,0-0.9,0.2-1.3,0.6C149.6,66.2,149.4,66.8,149.2,67.5z"/>
	<path d="M157.6,72.1h-1.3v-7.6h1.3v1.3c0.3-0.4,0.5-0.7,0.8-0.9c0.3-0.2,0.5-0.4,0.8-0.5s0.6-0.2,0.9-0.2c0.5,0,0.9,0.1,1.3,0.3
		c0.4,0.2,0.7,0.5,0.9,0.9c0.2,0.4,0.3,1,0.3,1.8v4.9h-1.3v-4.3c0-0.7,0-1.2-0.1-1.5c-0.1-0.3-0.3-0.5-0.5-0.7s-0.5-0.2-0.9-0.2
		c-0.4,0-0.7,0.1-1.1,0.3s-0.6,0.5-0.8,0.9c-0.2,0.4-0.3,1-0.3,1.7V72.1z"/>
	<path d="M167,71.7l-3.3-7.3h1.4l2.6,5.7l2.4-5.7h1.3l-3.2,7.6c-0.4,1-0.8,1.7-1.1,2c-0.3,0.3-0.6,0.6-0.9,0.7
		c-0.3,0.1-0.8,0.2-1.3,0.2h-1V74h0.7c0.4,0,0.7,0,0.9-0.1s0.5-0.2,0.7-0.5c0.2-0.2,0.4-0.7,0.7-1.4L167,71.7z"/>
	<path d="M175.2,62.7v-1.3h1.3v1.3H175.2z M175.2,64.4h1.3v7.6h-1.3V64.4z"/>
	<path d="M179.7,72.1h-1.3v-7.6h1.3v1.3c0.3-0.4,0.5-0.7,0.8-0.9c0.3-0.2,0.5-0.4,0.8-0.5s0.6-0.2,0.9-0.2c0.5,0,0.9,0.1,1.3,0.3
		c0.4,0.2,0.7,0.5,0.9,0.9c0.2,0.4,0.3,1,0.3,1.8v4.9h-1.3v-4.3c0-0.7,0-1.2-0.1-1.5c-0.1-0.3-0.3-0.5-0.5-0.7s-0.5-0.2-0.9-0.2
		c-0.4,0-0.7,0.1-1.1,0.3s-0.6,0.5-0.8,0.9c-0.2,0.4-0.3,1-0.3,1.7V72.1z"/>
	<path d="M190.6,72.1h-1.3v-7.6h1.3v1.4c0.3-0.5,0.5-0.8,0.7-1c0.2-0.2,0.5-0.4,0.8-0.5c0.3-0.1,0.6-0.1,0.9-0.1
		c0.3,0,0.6,0,0.9,0.1c0.3,0.1,0.5,0.2,0.7,0.4c0.2,0.2,0.4,0.5,0.6,1c0.3-0.4,0.5-0.8,0.8-1c0.3-0.2,0.5-0.4,0.8-0.5
		s0.5-0.2,0.8-0.2c0.4,0,0.8,0.1,1.2,0.3s0.6,0.5,0.8,0.9c0.2,0.4,0.3,1,0.3,1.9v4.8h-1.3v-4.2c0-0.9-0.1-1.5-0.2-1.7
		c-0.1-0.2-0.3-0.4-0.4-0.5c-0.2-0.1-0.4-0.2-0.7-0.2c-0.4,0-0.7,0.1-1,0.4c-0.3,0.2-0.6,0.6-0.8,1c-0.2,0.4-0.3,1-0.3,1.7v3.7H194
		v-4.2c0-0.9,0-1.5-0.1-1.7c-0.1-0.2-0.3-0.4-0.5-0.5c-0.2-0.1-0.4-0.2-0.7-0.2c-0.4,0-0.7,0.1-1,0.4c-0.3,0.2-0.6,0.6-0.8,1
		s-0.3,0.9-0.3,1.6V72.1z"/>
	<path d="M201.8,62.7v-1.3h1.3v1.3H201.8z M201.8,64.4h1.3v7.6h-1.3V64.4z"/>
	<path d="M206.4,72.1h-1.3v-7.6h1.3v1.3c0.3-0.4,0.5-0.7,0.8-0.9c0.3-0.2,0.5-0.4,0.8-0.5s0.6-0.2,0.9-0.2c0.5,0,0.9,0.1,1.3,0.3
		c0.4,0.2,0.7,0.5,0.9,0.9c0.2,0.4,0.3,1,0.3,1.8v4.9h-1.3v-4.3c0-0.7,0-1.2-0.1-1.5c-0.1-0.3-0.3-0.5-0.5-0.7s-0.5-0.2-0.9-0.2
		c-0.4,0-0.7,0.1-1.1,0.3s-0.6,0.5-0.8,0.9c-0.2,0.4-0.3,1-0.3,1.7V72.1z"/>
	<path d="M218.2,64.4h1.3v7.6h-1.3v-1.3c-0.3,0.4-0.5,0.7-0.8,0.9c-0.3,0.2-0.5,0.4-0.8,0.5c-0.3,0.1-0.6,0.2-0.9,0.2
		c-0.7,0-1.3-0.2-1.8-0.6c-0.5-0.4-0.7-1.2-0.7-2.4v-4.8h1.3v4.3c0,1.1,0.1,1.8,0.4,2s0.7,0.4,1.1,0.4c0.4,0,0.7-0.1,1.1-0.3
		c0.3-0.2,0.6-0.5,0.8-0.9c0.2-0.4,0.3-1,0.3-1.7V64.4z"/>
	<path d="M226.1,71v1.1c-0.6,0.1-1.1,0.2-1.4,0.2c-0.5,0-0.9-0.1-1.3-0.3s-0.7-0.5-0.9-0.8c-0.2-0.4-0.3-0.9-0.3-1.7v-3.9h-1.3v-1.1
		h1.3v-1.8h1.3v1.8h2.2v1.1h-2.2v3.6c0,0.7,0.1,1.1,0.2,1.4c0.1,0.3,0.3,0.5,0.5,0.6c0.2,0.1,0.5,0.2,0.8,0.2
		C225.2,71.2,225.6,71.1,226.1,71z"/>
	<path d="M232.6,70.1h1.3v0.1c0,0.3-0.1,0.7-0.4,1c-0.3,0.4-0.6,0.6-1.1,0.8c-0.4,0.2-1,0.3-1.5,0.3c-1.2,0-2.1-0.4-2.7-1.1
		s-0.9-1.7-0.9-2.9c0-1.2,0.3-2.1,1-2.9c0.7-0.8,1.5-1.2,2.6-1.2c0.6,0,1.1,0.1,1.6,0.4c0.5,0.2,0.8,0.6,1.1,1.2
		c0.3,0.5,0.4,1.3,0.4,2.2v0.4h-5.4c0,0.8,0.2,1.5,0.7,2c0.4,0.5,1.1,0.8,1.8,0.8c0.6,0,1-0.1,1.2-0.3
		C232.5,70.7,232.6,70.4,232.6,70.1L232.6,70.1z M228.6,67.5h4.1v-0.2c0-0.4-0.1-0.7-0.3-1c-0.2-0.3-0.4-0.6-0.7-0.7
		s-0.7-0.2-1.1-0.2c-0.5,0-0.9,0.2-1.3,0.6C229,66.2,228.7,66.8,228.6,67.5z"/>
	<path d="M235.2,70h1.3v0c0,0.3,0.1,0.6,0.4,0.8c0.3,0.2,0.7,0.3,1.3,0.3c0.5,0,1-0.1,1.3-0.4c0.3-0.3,0.5-0.6,0.5-0.9
		c0-0.5-0.3-0.8-1-1l-0.7-0.2l-0.4-0.1l-0.9-0.3c-1-0.4-1.5-1-1.5-1.8c0-0.6,0.2-1.1,0.7-1.6c0.5-0.5,1.2-0.7,2.2-0.7
		c0.9,0,1.6,0.2,2,0.6c0.4,0.4,0.6,0.8,0.6,1.3v0h-1.3v0c0-0.3-0.1-0.5-0.4-0.6c-0.3-0.1-0.6-0.2-1-0.2c-0.5,0-0.9,0.1-1.2,0.3
		c-0.3,0.2-0.4,0.5-0.4,0.8c0,0.2,0.1,0.4,0.3,0.6s0.5,0.3,0.9,0.4l0.6,0.2l0.5,0.1c0.6,0.2,1,0.3,1.2,0.4c0.2,0.1,0.3,0.2,0.5,0.3
		c0.2,0.2,0.4,0.4,0.5,0.6c0.1,0.2,0.2,0.5,0.2,0.8c0,0.7-0.3,1.3-0.8,1.8c-0.5,0.5-1.3,0.7-2.3,0.7c-0.6,0-1.2-0.1-1.6-0.3
		c-0.4-0.2-0.7-0.4-1-0.8C235.4,70.9,235.2,70.5,235.2,70L235.2,70z"/>
</g>
</svg>
